<svg xmlns="http://www.w3.org/2000/svg" width="78" height="78" viewBox="0 0 78 78" fill="none">
<path fill-rule="evenodd" clip-rule="evenodd" d="M75.237 8.40852L69.3015 2.47309C66.0041 -0.824364 60.7282 -0.824364 57.4307 2.47309L2.47309 57.4307C-0.824364 60.7282 -0.824364 66.0041 2.47309 69.3016L8.4085 75.237C11.706 78.5344 16.9819 78.5344 20.2794 75.237L75.237 20.2794C78.5344 16.9819 78.5344 11.706 75.237 8.40852ZM8.04211 60.7282C7.4559 61.3144 6.43002 61.3144 5.84381 60.7282C5.25759 60.142 5.25759 59.1161 5.84381 58.5299C6.43002 57.9437 7.4559 57.9437 8.04211 58.5299C8.70161 59.1161 8.70161 60.142 8.04211 60.7282ZM13.6111 66.2972C13.0249 66.8834 11.999 66.8834 11.4128 66.2972C10.8266 65.711 10.8266 64.6851 11.4128 64.0989C11.999 63.5127 13.0249 63.5127 13.6111 64.0989C14.2706 64.6851 14.2706 65.711 13.6111 66.2972ZM13.6111 55.1591C13.0249 55.7453 11.999 55.7453 11.4128 55.1591C10.8266 54.5729 10.8266 53.547 11.4128 52.9608C11.999 52.3746 13.0249 52.3746 13.6111 52.9608C14.2706 53.547 14.2706 54.5729 13.6111 55.1591ZM19.1802 71.8662C18.594 72.4525 17.5681 72.4525 16.9819 71.8662C16.3957 71.28 16.3957 70.2542 16.9819 69.6679C17.5681 69.0817 18.594 69.0817 19.1802 69.6679C19.8397 70.2542 19.8397 71.28 19.1802 71.8662ZM19.1802 60.7282C18.594 61.3144 17.5681 61.3144 16.9819 60.7282C16.3957 60.142 16.3957 59.1161 16.9819 58.5299C17.5681 57.9437 18.594 57.9437 19.1802 58.5299C19.8397 59.1161 19.8397 60.142 19.1802 60.7282ZM19.1802 49.5901C18.594 50.1763 17.5681 50.1763 16.9819 49.5901C16.3957 49.0039 16.3957 47.978 16.9819 47.3918C17.5681 46.8056 18.594 46.8056 19.1802 47.3918C19.8397 47.978 19.8397 49.0039 19.1802 49.5901ZM47.3918 16.9819C47.978 16.3957 49.0039 16.3957 49.5901 16.9819C50.1763 17.5681 50.1763 18.594 49.5901 19.1802C49.0039 19.7664 47.978 19.7664 47.3918 19.1802C46.8056 18.594 46.8056 17.5681 47.3918 16.9819ZM24.7492 66.2972C24.163 66.8834 23.1371 66.8834 22.5509 66.2972C21.9647 65.711 21.9647 64.6851 22.5509 64.0989C23.1371 63.5127 24.163 63.5127 24.7492 64.0989C25.4087 64.6851 25.4087 65.711 24.7492 66.2972ZM24.7492 55.1591C24.163 55.7453 23.1371 55.7453 22.5509 55.1591C21.9647 54.5729 21.9647 53.547 22.5509 52.9608C23.1371 52.3746 24.163 52.3746 24.7492 52.9608C25.4087 53.547 25.4087 54.5729 24.7492 55.1591ZM30.3183 60.7282C29.7321 61.3144 28.7062 61.3144 28.12 60.7282C27.5338 60.142 27.5338 59.1161 28.12 58.5299C28.7062 57.9437 29.7321 57.9437 30.3183 58.5299C30.9045 59.1161 30.9045 60.142 30.3183 60.7282ZM53.6936 38.8184L38.8184 53.6936C36.7666 55.7453 33.4692 55.7453 31.4174 53.6936L24.0165 46.2926C21.9647 44.2409 21.9647 40.9434 24.0165 38.8917L38.8916 24.0165C40.9434 21.9647 44.2409 21.9647 46.2926 24.0165L53.6936 31.4174C55.7453 33.4692 55.7453 36.8399 53.6936 38.8184ZM55.1591 24.7492C54.5729 25.3355 53.547 25.3355 52.9608 24.7492C52.3746 24.163 52.3746 23.1372 52.9608 22.5509C53.547 21.9647 54.5729 21.9647 55.1591 22.5509C55.7453 23.1372 55.8186 24.163 55.1591 24.7492ZM55.1591 13.6112C54.5729 14.1974 53.547 14.1974 52.9608 13.6112C52.3746 13.0249 52.3746 11.9991 52.9608 11.4129C53.547 10.8266 54.5729 10.8266 55.1591 11.4129C55.8186 11.9991 55.8186 13.0249 55.1591 13.6112ZM60.7282 30.3183C60.142 30.9045 59.1161 30.9045 58.5299 30.3183C57.9437 29.7321 57.9437 28.7062 58.5299 28.12C59.1161 27.5338 60.142 27.5338 60.7282 28.12C61.3877 28.7062 61.3877 29.7321 60.7282 30.3183ZM60.7282 19.1802C60.142 19.7664 59.1161 19.7664 58.5299 19.1802C57.9437 18.594 57.9437 17.5681 58.5299 16.9819C59.1161 16.3957 60.142 16.3957 60.7282 16.9819C61.3877 17.5681 61.3877 18.594 60.7282 19.1802ZM60.7282 8.04214C60.142 8.62835 59.1161 8.62835 58.5299 8.04214C57.9437 7.45592 57.9437 6.43005 58.5299 5.84383C59.1161 5.25762 60.142 5.25762 60.7282 5.84383C61.3877 6.43005 61.3877 7.45592 60.7282 8.04214ZM64.0989 11.4129C64.6851 10.8266 65.711 10.8266 66.2972 11.4129C66.8834 11.9991 66.8834 13.0249 66.2972 13.6112C65.711 14.1974 64.6851 14.1974 64.0989 13.6112C63.5127 13.0249 63.5127 11.9991 64.0989 11.4129ZM66.2972 24.7492C65.711 25.3355 64.6851 25.3355 64.0989 24.7492C63.5127 24.163 63.5127 23.1372 64.0989 22.5509C64.6851 21.9647 65.711 21.9647 66.2972 22.5509C66.8834 23.1372 66.9567 24.163 66.2972 24.7492ZM71.8662 19.1802C71.28 19.7664 70.2541 19.7664 69.6679 19.1802C69.0817 18.594 69.0817 17.5681 69.6679 16.9819C70.2541 16.3957 71.28 16.3957 71.8662 16.9819C72.5257 17.5681 72.5257 18.594 71.8662 19.1802ZM44.0943 26.2148C43.2883 25.4087 41.9693 25.4087 41.0899 26.2148L26.2148 41.09C25.4087 41.896 25.4087 43.215 26.2148 44.0943L33.6157 51.4953C34.4218 52.3013 35.7408 52.3013 36.6201 51.4953L51.4953 36.6201C52.3013 35.8141 52.3013 34.4951 51.4953 33.6157L44.0943 26.2148Z" fill="#0C2339"/>
</svg>