<svg xmlns="http://www.w3.org/2000/svg" width="66" height="59" viewBox="0 0 66 59" fill="none">
<g clip-path="url(#clip0_465_3005)">
<path d="M65 51.2996L51 27.0996L37 2.89961C34.7 -1.00039 31.1 -1.00039 28.9 2.89961L14.9 27.0996L1.00001 51.2996C-1.19999 55.1996 0.600006 58.3996 5.10001 58.3996H33.1H61.1C65.4 58.3996 67.3 55.1996 65 51.2996ZM62.7 55.1996C62.5 55.2996 62 55.5996 60.9 55.5996H5.00001C3.90001 55.5996 3.40001 55.2996 3.20001 55.1996C3.00001 54.9996 2.90001 54.7996 2.90001 54.4996C2.90001 54.2996 2.90001 53.6996 3.50001 52.7996L31.5 4.39961C32 3.49961 32.5 3.09961 32.7 2.99961C32.9 2.89961 33.2 2.89961 33.5 2.99961C33.7 3.09961 34.2 3.39961 34.7 4.39961L62.7 52.7996C63.2 53.6996 63.3 54.2996 63.3 54.4996C63.1 54.7996 63 54.9996 62.7 55.1996Z" fill="#0C2339"/>
<path d="M33 6L5.5 53.5H60.4L33 6ZM29.4 21V20.9C29.6 19.1 31.1 17.7 32.9 17.7C34.7 17.7 36.3 19.1 36.4 20.9V21V21.1V21.2C36.4 21.3 36.4 21.4 36.4 21.5C36.2 26.1 35 37.4 35 37.4C35 38.7 34.2 39.7 32.9 39.7H33C31.7 39.7 30.9 38.7 30.9 37.4C30.9 37.4 29.6 26.1 29.5 21.5C29.5 21.4 29.5 21.3 29.5 21.2V21.1C29.4 21.1 29.4 21 29.4 21ZM33 49.4C31 49.4 29.4 47.8 29.4 45.8C29.4 43.8 31 42.2 33 42.2C35 42.2 36.6 43.8 36.6 45.8C36.6 47.8 35 49.4 33 49.4Z" fill="#0C2339"/>
</g>
<defs>
<clipPath id="clip0_465_3005">
<rect width="66" height="58.4" fill="white"/>
</clipPath>
</defs>
</svg>