<svg xmlns="http://www.w3.org/2000/svg" width="85" height="55" viewBox="0 0 85 55" fill="none">
<g clip-path="url(#clip0_840_52943)">
<path fill-rule="evenodd" clip-rule="evenodd" d="M20.2075 38.7665C15.717 38.7665 12.1085 42.4009 12.1085 46.9236C12.1085 51.4464 15.717 55.0808 20.2075 55.0808C24.6981 55.0808 28.3066 51.4464 28.3066 46.9236C28.3066 42.4009 24.6981 38.7665 20.2075 38.7665ZM20.2075 50.9618C17.9623 50.9618 16.1981 49.1043 16.1981 46.9236C16.1981 44.743 18.0425 42.8855 20.2075 42.8855C22.4528 42.8855 24.217 44.743 24.217 46.9236C24.217 49.1043 22.4528 50.9618 20.2075 50.9618ZM82.9953 28.5095L64.7925 10.1762C62.7877 8.15712 60.783 6.13803 56.6934 6.13803C52.6038 6.13803 2.08491 6.13803 2.08491 6.13803C2.08491 6.13803 0 6.13803 0 8.15712V44.8238C0 46.8429 2.00472 46.8429 2.00472 46.8429H8.09906C8.09906 40.0587 13.5519 34.6476 20.2075 34.6476C26.9434 34.6476 32.316 40.1395 32.316 46.8429H56.6132C56.6132 40.0587 62.066 34.6476 68.7217 34.6476C75.4575 34.6476 80.8302 40.1395 80.8302 46.8429H82.8349C82.8349 46.8429 84.8396 46.8429 84.8396 44.5815V36.6667C85 32.6285 85 30.6094 82.9953 28.5095ZM40.4953 24.4714H34.4009V30.6094H28.3066V24.4714H22.2123V18.3333H28.3066V12.1953H34.4009V18.3333H40.4953V24.4714ZM76.0189 26.4905C76.0189 26.4905 56.6934 26.4905 54.6887 26.4905C52.684 26.4905 52.684 24.4714 52.684 24.4714C52.684 24.4714 52.684 16.3142 52.684 14.2952C52.684 12.2761 54.6887 12.2761 54.6887 12.2761H61.9057C61.9057 12.2761 63.9104 12.2761 65.9151 14.2952C67.9198 16.3142 74.0142 22.4523 76.0189 24.4714C78.0236 26.4905 76.0189 26.4905 76.0189 26.4905ZM68.8019 38.7665C64.3113 38.7665 60.7028 42.4009 60.7028 46.9236C60.7028 51.4464 64.3113 55.0808 68.8019 55.0808C73.2925 55.0808 76.9009 51.4464 76.9009 46.9236C76.9009 42.4009 73.2925 38.7665 68.8019 38.7665ZM68.8019 50.9618C66.5566 50.9618 64.7925 49.1043 64.7925 46.9236C64.7925 44.743 66.6368 42.8855 68.8019 42.8855C71.0472 42.8855 72.8113 44.743 72.8113 46.9236C72.8113 49.1043 71.0472 50.9618 68.8019 50.9618ZM52.6038 2.01909C52.6038 0.888399 51.7217 0 50.5991 0H48.5943C47.4717 0 46.5094 0.888399 46.5094 2.01909V4.03818H52.6038V2.01909Z" fill="white"/>
</g>
<defs>
<clipPath id="clip0_840_52943">
<rect width="85" height="55" fill="white"/>
</clipPath>
</defs>
</svg>