<svg xmlns="http://www.w3.org/2000/svg" width="76" height="76" viewBox="0 0 76 76" fill="none">
<path d="M27.709 6.33398C27.0791 6.33398 26.475 6.58421 26.0296 7.02961C25.5842 7.475 25.334 8.0791 25.334 8.70898V15.834H18.209C17.5791 15.834 16.975 16.0842 16.5296 16.5296C16.0842 16.975 15.834 17.5791 15.834 18.209V33.295L11.2107 34.9891C10.9019 35.1019 10.62 35.2776 10.3827 35.505C10.1453 35.7323 9.95779 36.0065 9.83188 36.3101C9.70598 36.6137 9.64446 36.9401 9.65122 37.2688C9.65798 37.5974 9.73287 37.921 9.87115 38.2192L17.2653 54.1126C17.9643 53.8814 18.7024 53.7919 19.4363 53.8492C20.1703 53.9066 20.8855 54.1097 21.5401 54.4467C22.1946 54.7837 22.7755 55.2479 23.2485 55.812C23.7216 56.3761 24.0775 57.0289 24.2953 57.7322C24.2953 57.7448 24.308 57.7733 24.3238 57.8176C24.6159 58.5997 25.0156 59.3373 25.5113 60.009C26.3853 61.1712 27.2973 61.7506 28.5007 61.7506C29.704 61.7506 30.616 61.1743 31.4868 60.009C31.9996 59.3136 32.4092 58.5478 32.7028 57.7353C33.0523 56.606 33.7538 55.618 34.7047 54.9158C35.6557 54.2135 36.8063 53.8337 37.9885 53.832C39.1707 53.8302 40.3224 54.2065 41.2755 54.9059C42.2285 55.6053 42.9329 56.5912 43.2858 57.7195L43.3175 57.8081C43.6127 58.5926 44.0156 59.3323 44.5145 60.0058C45.3917 61.1775 46.3068 61.7506 47.5006 61.7506C48.6945 61.7506 49.6065 61.1743 50.4868 60.009C51.0016 59.3105 51.4133 58.5415 51.7091 57.7258C51.9345 57.0036 52.3053 56.3351 52.7988 55.7616C53.2923 55.1881 53.898 54.7218 54.5786 54.3913C55.2591 54.0608 56.0002 53.8732 56.756 53.8399C57.5119 53.8067 58.2665 53.9286 58.9735 54.1981L66.7888 38.2666C66.9363 37.9663 67.0187 37.6382 67.0306 37.3038C67.0425 36.9694 66.9835 36.6362 66.8577 36.3262C66.7318 36.0161 66.5418 35.7362 66.3002 35.5047C66.0586 35.2732 65.7708 35.0953 65.4556 34.9828L60.1673 33.0955V18.209C60.1673 17.5791 59.9171 16.975 59.4717 16.5296C59.0263 16.0842 58.4222 15.834 57.7923 15.834H50.6673V8.70898C50.6673 8.0791 50.4171 7.475 49.9717 7.02961C49.5263 6.58421 48.9222 6.33398 48.2923 6.33398H27.709ZM45.9173 15.834H30.084V11.084H45.9173V15.834ZM55.4173 20.584V31.4013L41.4935 26.4328C39.2286 25.6255 36.7526 25.6367 34.4951 26.4645L20.584 31.5533V20.584H55.4173ZM59.3028 58.7866L59.2933 58.755C59.1584 58.2579 58.8656 57.8182 58.459 57.5021C58.0524 57.1859 57.5541 57.0105 57.0391 57.0023C56.5242 56.9941 56.0205 57.1535 55.604 57.4565C55.1875 57.7595 54.8808 58.1897 54.7302 58.6821V58.6885L54.7175 58.717L54.6542 58.9007C54.2525 59.9754 53.7014 60.9881 53.017 61.909C51.7915 63.5398 50.0435 64.9173 47.5006 64.9173C44.9578 64.9173 43.2066 63.5398 41.9811 61.909C41.2574 60.9346 40.6832 59.8577 40.2775 58.7138L40.268 58.6853C40.1194 58.1983 39.8182 57.772 39.4089 57.4692C38.9996 57.1664 38.5039 57.0031 37.9947 57.0035C37.4856 57.0038 36.99 57.1678 36.5812 57.4712C36.1723 57.7746 35.8717 58.2013 35.7238 58.6885L35.7112 58.7233C35.604 59.0349 35.4825 59.3413 35.347 59.6416C35.0651 60.2686 34.6281 61.0983 34.017 61.909C32.7978 63.5398 31.053 64.9173 28.5007 64.9173C25.9483 64.9173 24.2003 63.5398 22.978 61.909C22.2575 60.9364 21.6864 59.8616 21.2838 58.7201L21.2743 58.6853C21.1246 58.1926 20.8188 57.7618 20.403 57.458C19.9872 57.1542 19.4839 56.9938 18.9689 57.0009C18.454 57.0081 17.9553 57.1824 17.5481 57.4976C17.1409 57.8129 16.8471 58.2519 16.7112 58.7486L16.7017 58.7771L16.6447 58.9481C16.272 60.0003 15.7331 60.9861 15.0486 61.8678C13.8327 63.4195 11.8947 64.9173 8.70898 64.9173C8.0791 64.9173 7.475 65.1675 7.02961 65.6129C6.58421 66.0583 6.33398 66.6624 6.33398 67.2923C6.33398 67.9222 6.58421 68.5263 7.02961 68.9717C7.475 69.4171 8.0791 69.6673 8.70898 69.6673C13.6933 69.6673 16.9012 67.2068 18.7885 64.8001L19.0007 64.5183L19.178 64.759C20.926 67.0865 23.928 69.6673 28.5007 69.6673C33.0733 69.6673 36.0753 67.0865 37.8201 64.759L38.0006 64.512L38.1843 64.7621C39.9323 67.0865 42.9343 69.6673 47.5006 69.6673C52.067 69.6673 55.069 67.0865 56.817 64.759L56.9911 64.5215C57.0576 64.6165 57.1273 64.7051 57.2001 64.797C59.0843 67.2068 62.2985 69.6673 67.2923 69.6673C67.9222 69.6673 68.5263 69.4171 68.9717 68.9717C69.4171 68.5263 69.6673 67.9222 69.6673 67.2923C69.6673 66.6624 69.4171 66.0583 68.9717 65.6129C68.5263 65.1675 67.9222 64.9173 67.2923 64.9173C64.0876 64.9173 62.1528 63.4195 60.9431 61.871C60.2255 60.9433 59.6708 59.9003 59.3028 58.7866Z" fill="#0C2339"/>
</svg>