<svg xmlns="http://www.w3.org/2000/svg" width="80" height="80" viewBox="0 0 80 80" fill="none">
<path d="M66.6663 26.6673H49.9997V46.6673H6.66634V56.6673H9.99967C9.99967 62.334 14.333 66.6673 19.9997 66.6673C25.6663 66.6673 29.9997 62.334 29.9997 56.6673H49.9997C49.9997 62.334 54.333 66.6673 59.9997 66.6673C65.6663 66.6673 69.9997 62.334 69.9997 56.6673H76.6663V40.0007L66.6663 26.6673ZM19.9997 61.6673C17.333 61.6673 14.9997 59.334 14.9997 56.6673C14.9997 54.0006 17.333 51.6673 19.9997 51.6673C22.6663 51.6673 24.9997 54.0006 24.9997 56.6673C24.9997 59.334 22.6663 61.6673 19.9997 61.6673ZM59.9997 61.6673C57.333 61.6673 54.9997 59.334 54.9997 56.6673C54.9997 54.0006 57.333 51.6673 59.9997 51.6673C62.6663 51.6673 64.9997 54.0006 64.9997 56.6673C64.9997 59.334 62.6663 61.6673 59.9997 61.6673ZM56.6663 40.0007V31.6673H64.9997L71.6663 40.0007H56.6663ZM46.6663 31.6673C46.6663 38.0007 41.333 43.334 34.9997 43.334H14.9997C8.66634 43.334 3.33301 38.0007 3.33301 31.6673C3.33301 25.334 8.66634 20.0007 14.9997 20.0007H16.6663V16.6673H13.333V13.334H26.6663V16.6673H23.333V20.0007H34.9997C41.333 20.0007 46.6663 25.334 46.6663 31.6673Z" fill="#0C2339"/>
</svg>