<svg xmlns="http://www.w3.org/2000/svg" width="72" height="71" viewBox="0 0 72 71" fill="none">
<g clip-path="url(#clip0_774_47640)">
<path d="M29.4672 47.8746C30.2989 44.6589 32.3086 42.6214 35.6906 42.5937C39.1974 42.5659 41.2349 44.6728 42.0804 47.9716C46.0029 47.334 49.87 47.4587 53.7787 47.8607C53.9312 47.4172 54.0559 47.0013 54.2084 46.5855C55.3311 43.7441 58.2141 42.1363 61.2219 42.6907C64.2019 43.2313 66.3364 45.7955 66.3503 48.8587C66.3642 51.811 64.2296 54.4306 61.3466 55.0128C58.3666 55.6226 55.3588 54.0703 54.2777 51.2288C53.9173 50.2863 53.3906 49.8289 52.4758 49.7457C49.4404 49.4269 46.4187 49.3576 43.3833 49.8012C42.4407 49.9398 41.8725 50.3972 41.4566 51.3674C40.3894 53.8623 38.3796 55.1514 35.649 55.1237C32.9601 55.0959 30.9919 53.793 30.0078 51.3259C29.5642 50.2031 28.8712 49.7319 27.8455 49.718C25.0734 49.6626 22.3151 49.6626 19.543 49.718C18.3649 49.7457 17.561 50.2586 17.0481 51.5199C15.8838 54.3336 12.7375 55.7335 9.81287 54.9573C6.98531 54.2089 4.97552 51.5338 5.0864 48.7062C5.22501 45.5876 7.42885 43.1481 10.5475 42.663C13.4444 42.2194 16.2996 43.9381 17.3253 46.7657C17.4778 47.1815 17.6025 47.5974 17.7273 47.9854C21.6776 47.334 25.5447 47.4449 29.4672 47.8746ZM35.8292 44.5619C33.4175 44.5342 31.4631 46.4331 31.4354 48.8448C31.4077 51.1318 33.362 53.1277 35.6768 53.1693C38.0331 53.2248 40.0567 51.2288 40.0706 48.8587C40.0983 46.5439 38.1717 44.5896 35.8292 44.5619ZM11.4484 44.5619C9.02282 44.5619 7.11005 46.4885 7.12391 48.9141C7.13777 51.2288 9.09212 53.1693 11.4068 53.1832C13.7216 53.197 15.7036 51.2566 15.7452 48.9418C15.8007 46.5578 13.8324 44.5619 11.4484 44.5619ZM60.0299 44.5619C57.6458 44.5896 55.7053 46.5855 55.7746 48.9834C55.8301 51.2843 57.8537 53.2109 60.1546 53.1693C62.5525 53.1277 64.4514 51.1318 64.396 48.7201C64.3266 46.3776 62.4 44.5342 60.0299 44.5619Z" fill="white"/>
<path d="M46.3771 31.6155C45.795 31.6155 45.2405 31.6155 44.5198 31.6155C44.5198 31.0334 44.5198 30.5067 44.5198 29.98C44.5198 27.4712 44.5337 24.9624 44.5059 22.4675C44.5059 21.7606 44.4643 21.0399 44.3396 20.333C43.8268 17.4084 42.3021 16.0362 39.3221 15.9253C36.9935 15.8421 34.6649 15.8699 32.3502 15.9253C30.2988 15.9807 28.7464 16.9094 27.9148 18.836C26.6812 21.6913 25.9466 24.6713 25.7525 27.79C25.7387 28.1504 25.7387 28.5107 25.8218 28.8572C26.002 29.6334 26.5426 29.9938 27.3188 29.8414C27.7485 29.7582 28.1643 29.5503 28.5385 29.3285C30.8532 27.984 33.168 26.6118 35.4827 25.2535C36.4668 24.6713 36.7856 24.1862 36.5222 23.6457C36.245 23.0635 35.7322 23.0497 34.651 23.5902C33.2234 24.311 31.7958 25.0456 30.2572 25.8218C29.9662 25.2535 29.7028 24.7545 29.3563 24.0892C30.7423 23.3684 32.0591 22.6754 33.1818 22.0794C33.1818 21.0121 33.1264 20.1251 33.1957 19.2518C33.3066 17.8103 34.3738 16.8817 35.7876 16.8955C37.1737 16.8955 38.2548 17.8796 38.3241 19.3073C38.3657 20.0142 38.2132 20.7211 38.1994 21.4418C38.1855 21.8576 38.1578 22.315 38.2964 22.6893C38.8369 24.1585 38.6429 25.3782 37.4786 26.3208C36.9242 26.7643 36.647 27.2078 36.7301 27.9009C36.7579 28.1642 36.8133 28.483 36.7024 28.6909C36.5084 29.0374 36.245 29.481 35.9124 29.5919C35.3857 29.7859 34.9698 29.4533 34.8312 28.885C34.7758 28.6771 34.7342 28.4692 34.6372 28.0533C32.96 29.0374 31.3938 29.9522 29.8553 30.9225C29.6335 31.0611 29.5503 31.5323 29.5226 31.865C29.4672 32.3778 29.5088 32.9045 29.5088 33.5006C28.8296 33.5006 28.3029 33.5006 27.693 33.5006C27.6237 33.0293 27.5544 32.5719 27.4851 32.1145C27.3881 32.059 27.3188 31.9759 27.2356 31.962C24.5882 31.5185 23.7705 30.6037 23.812 27.9286C23.8675 24.4357 24.7546 21.1092 26.1545 17.949C27.3188 15.3154 29.481 14.0541 32.3363 14.0125C34.6649 13.9848 36.9935 13.971 39.3082 14.0264C43.4248 14.1096 46.086 16.5074 46.3217 20.624C46.5296 24.1031 46.4464 27.5959 46.488 31.0888C46.5019 31.1997 46.4326 31.3799 46.3771 31.6155ZM36.4113 19.9449C36.3836 19.4459 36.4113 18.8499 35.7044 18.8915C35.0253 18.9331 35.0946 19.5568 35.0946 20.0419C35.0946 20.4993 35.1362 21.026 35.7322 21.026C36.4252 21.026 36.3975 20.4439 36.4113 19.9449Z" fill="white"/>
<path d="M22.953 70.7863C22.2184 70.7863 21.6917 70.7863 21.0541 70.7863C21.0125 70.3427 20.9571 69.9546 20.9571 69.5804C20.9432 68.4577 20.9709 67.3488 20.9432 66.2261C20.9016 65.1589 20.4303 64.5767 19.4047 64.5628C14.0822 64.5213 8.77358 64.5213 3.4511 64.5628C2.43928 64.5628 1.92644 65.1589 1.88485 66.2123C1.82941 67.2795 1.87099 68.3607 1.87099 69.4279C1.87099 69.8576 1.82941 70.2873 1.80169 70.7863C1.17796 70.7863 0.66512 70.7863 0.0136719 70.7863C0.0136719 68.9151 0.0136719 67.0578 0.0136719 65.2004C0.0136719 65.1589 0.0275325 65.1034 0.0552537 65.0757C1.01164 63.7867 1.12252 62.1927 1.63536 60.7512C2.43928 58.5196 4.2966 57.3831 6.5143 57.0227C9.7854 56.496 13.1258 56.4683 16.3969 57.0227C20.0838 57.6464 21.6362 60.1552 21.7194 62.6778C21.7332 63.0382 21.9134 63.454 22.1352 63.7451C22.7451 64.5767 23.0084 65.4776 22.9946 66.5033C22.9391 67.8894 22.953 69.2616 22.953 70.7863ZM19.5987 62.5115C19.5571 61.2779 19.0997 60.3769 18.1988 59.9195C17.2285 59.4206 16.1474 58.9216 15.0802 58.8523C12.6823 58.6998 10.2567 58.6998 7.84492 58.8384C6.81923 58.8939 5.76582 59.3374 4.83716 59.8225C3.86692 60.3354 3.25705 61.2363 3.24319 62.5115C8.69041 62.5115 14.0822 62.5115 19.5987 62.5115Z" fill="white"/>
<path d="M71.6043 70.7999C70.8974 70.7999 70.3846 70.7999 69.65 70.7999C69.65 69.8296 69.65 68.901 69.65 67.9862C69.65 67.501 69.6638 67.0021 69.65 66.5169C69.5945 65.0893 69.1094 64.5765 67.6956 64.5487C65.5472 64.521 63.3988 64.5349 61.2504 64.5349C58.4783 64.5349 55.7062 64.521 52.9341 64.5349C50.9381 64.5349 50.5639 64.923 50.5639 66.8773C50.5639 68.1664 50.5639 69.4415 50.5639 70.7999C49.857 70.7999 49.3303 70.7999 48.568 70.7999C48.568 69.7465 48.5818 68.6931 48.568 67.6535C48.5402 66.1704 48.4848 64.6873 49.663 63.5092C49.8154 63.3567 49.8154 63.0102 49.8431 62.7469C50.2035 59.5589 52.047 57.3551 55.2765 57.064C58.506 56.7729 61.8048 56.7729 65.0205 57.064C68.1946 57.3551 69.9272 59.4758 70.3568 62.6776C70.4123 63.0934 70.6063 63.523 70.842 63.8696C71.3687 64.6319 71.632 65.4497 71.6182 66.3783C71.5766 67.7921 71.6043 69.2198 71.6043 70.7999ZM51.9222 62.4974C57.3972 62.4974 62.8028 62.4974 68.2778 62.4974C68.2223 61.1252 67.557 60.1965 66.4759 59.6421C65.6997 59.2401 64.8126 58.8797 63.9532 58.852C61.4167 58.7411 58.8664 58.7134 56.3299 58.852C55.3597 58.9075 54.3478 59.351 53.4608 59.8361C52.5321 60.3628 51.9084 61.2499 51.9222 62.4974Z" fill="white"/>
<path d="M26.2239 70.8006C25.517 70.8006 24.9903 70.8006 24.3389 70.8006C24.2419 68.8462 23.8399 66.8364 24.5052 65.09C25.0458 63.6485 25.42 62.1654 25.9606 60.7378C26.8338 58.4646 28.7327 57.4389 30.992 56.9954C31.8652 56.8291 32.7661 56.7598 33.6532 56.7598C35.8432 56.7736 38.0332 56.7459 40.2093 56.9538C43.4943 57.2726 45.9199 59.421 46.0723 62.8307C46.0862 63.1634 46.2387 63.5237 46.4466 63.7871C47.0703 64.5633 47.2782 65.4365 47.2782 66.4067C47.2643 67.8344 47.2782 69.2482 47.2782 70.759C46.599 70.759 46.0446 70.759 45.3239 70.759C45.3239 69.3729 45.3377 68.0562 45.3239 66.7255C45.31 65.0345 44.8526 64.5356 43.1893 64.5356C38.2272 64.5217 33.2651 64.5217 28.303 64.5356C26.6952 64.5356 26.2517 65.0345 26.2378 66.6424C26.2101 67.973 26.2239 69.3036 26.2239 70.8006ZM44.1318 62.5258C43.8546 61.8327 43.716 61.3199 43.4527 60.8764C42.5795 59.4349 41.1241 58.9082 39.5856 58.8389C37.0491 58.728 34.5126 58.7696 31.9622 58.825C30.7841 58.8527 29.6752 59.2685 28.7743 60.0725C28.0674 60.6962 27.4853 61.4031 27.6239 62.5119C33.0711 62.5258 38.449 62.5258 44.1318 62.5258Z" fill="white"/>
<path d="M35.774 0C39.35 0 42.1221 2.78598 42.136 6.37588C42.1498 9.86875 39.35 12.6686 35.8571 12.6825C32.2534 12.6963 29.4674 9.95192 29.4397 6.37588C29.4119 2.79984 32.1979 0 35.774 0ZM40.1816 6.3343C40.1816 3.99186 38.1996 1.98207 35.8433 1.94049C33.4454 1.8989 31.3663 3.95027 31.3801 6.34816C31.3801 8.70446 33.3761 10.7143 35.7324 10.742C38.158 10.7697 40.1816 8.7599 40.1816 6.3343Z" fill="white"/>
<path d="M23.6875 45.9625C20.1946 45.9763 17.367 43.1626 17.3809 39.6836C17.3948 36.26 20.1669 33.4463 23.5766 33.4048C27.0556 33.3632 29.9386 36.1769 29.9663 39.642C29.9941 43.1072 27.1804 45.9486 23.6875 45.9625ZM23.6736 35.3868C21.345 35.373 19.3768 37.2719 19.3353 39.6004C19.2937 41.9567 21.2757 43.9804 23.6459 43.9943C25.9606 44.0081 27.9288 42.0815 27.9704 39.7529C28.012 37.355 26.0854 35.4007 23.6736 35.3868Z" fill="white"/>
<path d="M48.0685 45.961C44.5479 45.9749 41.762 43.2166 41.7481 39.696C41.7342 36.2586 44.4925 33.4449 47.9022 33.3895C51.4367 33.334 54.3058 36.1755 54.3058 39.7376C54.3197 43.1196 51.4782 45.9472 48.0685 45.961ZM52.3099 39.7238C52.3376 37.3536 50.4803 35.4408 48.124 35.3854C45.7122 35.33 43.7302 37.2289 43.6886 39.6267C43.647 41.9692 45.6984 44.0206 48.0408 43.9928C50.3833 43.979 52.2822 42.0662 52.3099 39.7238Z" fill="white"/>
</g>
<defs>
<clipPath id="clip0_774_47640">
<rect width="71.6039" height="70.8" fill="white"/>
</clipPath>
</defs>
</svg>