<svg xmlns="http://www.w3.org/2000/svg" width="78" height="66" viewBox="0 0 78 66" fill="none">
<path fill-rule="evenodd" clip-rule="evenodd" d="M70.5656 12.3105H52.9059V5.27593C52.9059 2.34486 50.561 0 47.6299 0H29.9702C27.0392 0 24.6943 2.34486 24.6943 5.27593V12.3105H7.03456C3.15089 12.3105 0 15.4614 0 19.3451V58.1818C0 62.0655 3.15089 65.2164 7.03456 65.2164H70.5656C74.4492 65.2164 77.6002 62.0655 77.6002 58.1818V19.3451C77.6735 15.4614 74.5225 12.3105 70.5656 12.3105ZM28.2116 5.20265C28.2116 4.25006 29.0176 3.44401 29.9702 3.44401H47.6299C48.5825 3.44401 49.3886 4.25006 49.3886 5.20265V12.2372H28.2116V5.20265ZM50.7076 32.828L44.7721 38.7634L50.7076 44.6989L44.7721 50.6343L38.8367 44.6989L32.9013 50.6343L26.9659 44.6989L32.9013 38.7634L26.9659 32.828L32.9013 26.8926L38.8367 32.828L44.7721 26.8926L50.7076 32.828Z" fill="#0C2339"/>
</svg>