<svg xmlns="http://www.w3.org/2000/svg" width="78" height="49" viewBox="0 0 78 49" fill="none">
<path fill-rule="evenodd" clip-rule="evenodd" d="M30.1168 40.3755C30.1168 40.3755 29.8969 35.7591 29.6771 35.0263C29.4573 34.2935 29.4573 33.4142 28.2848 32.828C27.1124 32.2418 22.3494 30.1168 22.0563 29.8969C21.6899 29.6771 21.4701 29.5306 21.4701 29.1642V28.3581C21.4701 28.2116 21.4701 27.6986 21.6899 27.4055C21.9098 27.1124 22.4227 25.8667 22.4227 25.4271C22.4227 25.2072 22.6425 24.9874 22.7891 24.9141C23.0822 24.7676 23.3753 24.4012 23.3753 23.815C23.3753 23.1555 23.302 22.3494 23.0089 22.2761C22.8624 22.2761 22.8624 21.983 22.9356 21.6167C23.0089 21.2503 23.2288 19.7848 23.0822 19.1985C22.8624 18.1727 21.9098 16.414 18.6856 16.414C15.4614 16.414 14.5088 18.1727 14.289 19.1985C14.1424 19.7848 14.3623 21.3236 14.4355 21.6167C14.5088 21.983 14.5088 22.2761 14.3623 22.2761C14.0691 22.2761 13.9959 23.1555 13.9959 23.815C13.9959 24.4012 14.289 24.7676 14.5821 24.9141C14.7286 24.9874 14.8752 25.134 14.9485 25.4271C15.0217 25.8667 15.4614 27.1124 15.6812 27.4055C15.9011 27.6986 15.9011 28.1383 15.9011 28.3581V29.1642C15.9011 29.5306 15.6812 29.6771 15.3149 29.8969C14.9485 30.1168 10.1855 32.2418 9.08632 32.828C7.91389 33.4142 7.9139 34.2935 7.69407 35.0263C7.47424 35.7591 7.2544 40.3755 7.2544 40.3755H18.7589H30.1168ZM74.5225 0H3.15089C1.39225 0 0 1.39225 0 3.15089V45.798C0 47.5567 1.39225 48.9489 3.15089 48.9489H74.5225C76.2812 48.9489 77.6734 47.5567 77.6734 45.798V3.15089C77.6734 1.39225 76.2079 0 74.5225 0ZM36.1987 11.4312H41.3281V6.30181H46.4575V11.4312H51.5869V16.5606H46.4575V21.6899H41.3281V16.5606H36.1987V11.4312ZM32.2418 42.6471H5.0561V6.37509H32.2418V42.6471ZM57.3025 42.6471H36.1987V36.8582H57.3025V42.6471ZM72.3975 31.0694H36.1987V25.2805H72.3975V31.0694Z" fill="#0C2339"/>
</svg>