 <svg
    xmlns="http://www.w3.org/2000/svg"
    width="75"
    height="78"
    viewBox="0 0 75 78"
    fill="none"
  >
    <path
      fill-rule="evenodd"
      clip-rule="evenodd"
      d="M72.9837 60.2335C72.3242 57.962 72.1777 54.9576 68.4406 53.199C66.169 52.0998 58.5482 48.5093 52.9059 45.8713V56.7895C54.8843 57.3025 56.3499 59.1344 56.3499 61.2594C56.3499 63.8241 54.2982 65.8759 51.7335 65.8759C49.1688 65.8759 47.117 63.8241 47.117 61.2594C47.117 59.0611 48.5826 57.2292 50.6343 56.7895V44.6989C48.2162 43.5264 46.5308 42.7937 46.5308 42.7937L41.548 60.3801L39.1298 49.8282C39.1298 49.8282 40.4488 46.9704 40.4488 45.8713C40.4488 44.8454 39.7161 43.9661 37.2979 43.9661C34.8798 43.9661 34.147 44.8454 34.147 45.8713C34.147 46.8972 35.466 49.8282 35.466 49.8282L33.0479 60.3801L28.065 42.7937C28.065 42.7937 25.2072 44.1126 21.4701 45.8713V51.2205C27.4055 55.5438 29.6039 60.087 29.6039 63.4577C29.6039 66.975 29.6039 72.7639 29.6039 72.7639C29.6039 72.7639 29.6038 73.9363 28.4314 73.9363H26.9659C26.5995 74.5958 25.7935 75.1087 24.9874 75.1087C23.6684 75.1087 22.6426 74.0829 22.6426 72.7639C22.6426 71.4449 23.6684 70.419 24.9874 70.419C25.8667 70.419 26.5995 70.8587 26.9659 71.5915H27.259C27.259 71.5915 27.259 67.8543 27.259 63.4577C27.259 59.9404 24.3279 56.4232 20.2977 53.199C16.2675 56.3499 13.3364 59.9404 13.3364 63.4577C13.3364 67.8543 13.3364 71.5915 13.3364 71.5915H13.6295C13.9959 70.932 14.8019 70.419 15.608 70.419C16.9269 70.419 17.9528 71.4449 17.9528 72.7639C17.9528 74.0829 16.9269 75.1087 15.608 75.1087C14.7286 75.1087 13.9959 74.6691 13.6295 73.9363H12.164C10.9916 73.9363 10.9915 72.7639 10.9915 72.7639C10.9915 72.7639 10.9915 66.975 10.9915 63.4577C10.9915 60.087 13.1899 55.5438 19.1253 51.2205V46.9704C13.9226 49.3886 7.98718 52.2464 6.00871 53.199C2.27159 55.0309 2.12503 57.962 1.46554 60.2335C0.806045 62.5784 0 77.6002 0 77.6002L37.2246 77.6734L74.4493 77.6002C74.5226 77.6002 73.7165 62.5784 72.9837 60.2335ZM23.302 19.1985C22.4227 19.3451 22.1296 21.983 22.0564 24.1081C22.0564 25.94 22.9357 27.1857 23.8883 27.6254C24.4012 27.8452 24.9141 28.4314 24.9874 29.1642C25.3538 32.5349 29.8237 39.5695 37.2246 39.5695C44.6256 39.5695 49.0955 32.5349 49.4619 29.1642C49.5351 28.3581 50.0481 27.8452 50.561 27.6254C51.5136 27.1857 52.3929 26.0133 52.3929 24.1081C52.3929 21.983 52.0998 19.3451 51.1472 19.1985C50.6343 19.1253 50.7076 18.2459 51.0007 17.0002C51.2205 15.9011 51.88 10.9182 51.5136 9.08633C50.8541 5.78887 47.7032 0 37.2246 0C26.746 0 23.5951 5.71559 22.9356 9.08633C22.5693 10.9915 23.2288 15.9011 23.4486 17.0002C23.7417 18.2459 23.815 19.1253 23.302 19.1985Z"
      fill="#0C2339"></path>
  </svg>