<svg xmlns="http://www.w3.org/2000/svg" width="63" height="65" viewBox="0 0 63 65" fill="none">
<path d="M30 16.1983V16.261C30 18.5794 25.1587 20.4673 16 20.4673C6.38065 20.4673 2 18.5794 2 16.261V16.1535C2 14.8108 3.50839 13.7456 6.48903 12.9936C9.03613 12.3491 12.4142 12 16 12C19.5768 12 22.9548 12.3491 25.511 12.9936C28.4916 13.7456 30 14.8108 30 16.1535V16.1983ZM14.0129 16.1535C14.0129 15.7776 12.8206 15.4822 11.3574 15.4822C9.88516 15.4822 8.6929 15.7776 8.6929 16.1535C8.6929 16.5206 9.88516 16.8249 11.3574 16.8249C12.8206 16.8249 14.0129 16.5206 14.0129 16.1535ZM29.151 24.9163V19.5274C28.3652 20.1182 27.1729 20.6195 25.5742 21.0223C23 21.6758 19.6039 22.0249 16 22.0249C12.3961 22.0249 9 21.6668 6.42581 21.0223C4.8271 20.6195 3.63484 20.1272 2.84903 19.5274V24.9163C2.28 25.3907 2 25.9188 2 26.5007V26.5992C2 28.9176 6.38065 30.7975 16 30.7975C25.1587 30.7975 30 28.9176 30 26.5992V26.5007C30 25.9188 29.72 25.3907 29.151 24.9163ZM29.151 36.4549V29.8754C28.3652 30.4663 27.1729 30.9675 25.5742 31.3704C23 32.0149 19.6039 32.3729 16 32.3729C12.3961 32.3729 9 32.0149 6.42581 31.3704C4.8271 30.9675 3.63484 30.4663 2.84903 29.8754V36.4549C2.28 36.9293 2 37.4574 2 38.0393V38.1199C2 40.4383 6.38065 42.3182 16 42.3182C25.1587 42.3182 30 40.4383 30 38.1199V38.0393C30 37.4485 29.72 36.9204 29.151 36.4549ZM29.9548 49.4705C29.8555 49.0319 29.5935 48.629 29.151 48.262V41.4141C28.3652 42.0049 27.1729 42.5062 25.5742 42.909C23 43.5535 19.6039 43.9116 16 43.9116C12.3961 43.9116 9 43.5535 6.42581 42.909C4.8271 42.5062 3.63484 42.0049 2.84903 41.4141V48.262C2.40645 48.629 2.14452 49.0319 2.04516 49.4705C2.01806 49.5779 2 49.6943 2 49.8017V49.8465C2 50.3567 2.20774 50.8222 2.63226 51.2429C4.16774 52.8542 8.48516 54 16 54C21.4374 54 25.3574 53.3376 27.6426 52.3082C29.2052 51.6368 30 50.8222 30 49.8465V49.8017C30 49.6943 29.9819 49.5779 29.9548 49.4705Z" fill="#0C2339"/>
<path d="M62 16.1983V16.261C62 18.5794 57.1587 20.4673 48 20.4673C38.3806 20.4673 34 18.5794 34 16.261V16.1535C34 14.8108 35.5084 13.7456 38.489 12.9936C41.0361 12.3491 44.4142 12 48 12C51.5768 12 54.9548 12.3491 57.511 12.9936C60.4916 13.7456 62 14.8108 62 16.1535V16.1983ZM46.0129 16.1535C46.0129 15.7776 44.8206 15.4822 43.3574 15.4822C41.8852 15.4822 40.6929 15.7776 40.6929 16.1535C40.6929 16.5206 41.8852 16.8249 43.3574 16.8249C44.8206 16.8249 46.0129 16.5206 46.0129 16.1535ZM61.151 24.9163V19.5274C60.3652 20.1182 59.1729 20.6195 57.5742 21.0223C55 21.6758 51.6039 22.0249 48 22.0249C44.3961 22.0249 41 21.6668 38.4258 21.0223C36.8271 20.6195 35.6348 20.1272 34.849 19.5274V24.9163C34.28 25.3907 34 25.9188 34 26.5007V26.5992C34 28.9176 38.3806 30.7975 48 30.7975C57.1587 30.7975 62 28.9176 62 26.5992V26.5007C62 25.9188 61.72 25.3907 61.151 24.9163ZM61.151 36.4549V29.8754C60.3652 30.4663 59.1729 30.9675 57.5742 31.3704C55 32.0149 51.6039 32.3729 48 32.3729C44.3961 32.3729 41 32.0149 38.4258 31.3704C36.8271 30.9675 35.6348 30.4663 34.849 29.8754V36.4549C34.28 36.9293 34 37.4574 34 38.0393V38.1199C34 40.4383 38.3806 42.3182 48 42.3182C57.1587 42.3182 62 40.4383 62 38.1199V38.0393C62 37.4485 61.72 36.9204 61.151 36.4549ZM61.9548 49.4705C61.8555 49.0319 61.5935 48.629 61.151 48.262V41.4141C60.3652 42.0049 59.1729 42.5061 57.5742 42.909C55 43.5535 51.6039 43.9116 48 43.9116C44.3961 43.9116 41 43.5535 38.4258 42.909C36.8271 42.5061 35.6348 42.0049 34.849 41.4141V48.262C34.4065 48.629 34.1445 49.0319 34.0452 49.4705C34.0181 49.5779 34 49.6943 34 49.8017V49.8465C34 50.3567 34.2077 50.8222 34.6323 51.2429C36.1677 52.8542 40.4852 54 48 54C53.4374 54 57.3574 53.3376 59.6426 52.3082C61.2052 51.6368 62 50.8222 62 49.8465V49.8017C62 49.6943 61.9819 49.5779 61.9548 49.4705Z" fill="#0C2339"/>
</svg>