<svg xmlns="http://www.w3.org/2000/svg" width="59" height="64" viewBox="0 0 59 64" fill="none">
<g clip-path="url(#clip0_465_2980)">
<path fill-rule="evenodd" clip-rule="evenodd" d="M38.1622 0H20.8378V17.2679H38.1622V0ZM27.7433 10.3849H24.2906V6.9434H27.7433M31.2567 6.9434H34.7094V10.3849H31.2567M52.0339 17.2679C52.0339 15.3358 50.4589 13.8264 48.5811 13.8264H39.9189V19.0189H19.0811V13.8264H10.4189C8.48049 13.8264 6.96612 15.3962 6.96612 17.2679V20.7094H52.0945V17.2679H52.0339ZM0 22.4604V64H24.2906V46.7321H34.7094V64H59V22.4604H0ZM17.3244 57.0566H6.96612V46.7321H17.385V57.0566H17.3244ZM17.3244 39.7887H6.96612V29.4038H17.385V39.7887H17.3244ZM34.7094 39.7887H24.2906V29.4038H34.7094V39.7887ZM52.0339 57.0566H41.6756V46.7321H52.0945V57.0566H52.0339ZM52.0339 39.7887H41.6756V29.4038H52.0945V39.7887H52.0339Z" fill="#0C2339"/>
</g>
<defs>
<clipPath id="clip0_465_2980">
<rect width="59" height="64" fill="white"/>
</clipPath>
</defs>
</svg> 