<svg xmlns="http://www.w3.org/2000/svg" width="72" height="64" viewBox="0 0 72 64" fill="none">
<g clip-path="url(#clip0_826_54846)">
<path d="M66.0372 7.66272C64.6122 2.32522 59.1247 -0.837282 53.7872 0.587718L51.8622 1.10022C49.7247 1.67522 51.2872 2.875 51.8622 5L54.9247 16.425L38.5622 20.9377L37.7747 18.6752C38.1622 18.6752 35.7 18.6752 34 18.6752C32.3 18.6752 30.2247 18.6752 30.2247 18.6752L28.5247 23.5502L11.9997 27.8252V23.0002C11.9997 23.0002 10.6625 23.0002 9 23.0002C7.3375 23.0002 5.99967 23.0002 5.99967 23.0002V56.0002H1.99955C-0.212946 56.0002 -0.000333969 57.7877 -0.000333969 60.0002C-0.000333969 62.2127 -0.212946 64.0002 1.99955 64.0002H70.4997C72.7122 64.0002 71.9997 62.2127 71.9997 60.0002C71.9997 57.7877 72.7122 56.0002 70.4997 56.0002H50.8372L42.4997 32.1877L34.7247 34.2002L38.1622 44.0002H29.8372L33.1247 34.6252L23.7997 37.0377L17.1622 56.0002H11.9997V36.1002L56.8497 24.3502L59.9997 36.1002C60.5747 38.2377 60.0872 40.3127 62.2247 39.7377L64.1622 39.2252C69.4997 37.8002 72.6622 32.3127 71.2372 26.9752L66.0372 7.66272ZM25.6372 56.0002L27.0372 52.0002H40.9622L42.3622 56.0002H25.6372Z" fill="#0C2339"/>
</g>
<defs>
<clipPath id="clip0_826_54846">
<rect width="72" height="64" fill="white"/>
</clipPath>
</defs>
</svg>