<svg xmlns="http://www.w3.org/2000/svg" width="71" height="71" viewBox="0 0 71 71" fill="none">
<path d="M64.2246 25.7663C67.9226 22.0684 66.2363 17.7492 64.2246 15.6488L55.3496 6.77381C51.6221 3.0759 47.3326 4.76215 45.2322 6.77381L40.203 11.8326H32.5409C26.9201 11.8326 23.6659 14.7909 22.0092 18.193L8.87423 31.328V43.1613L6.77381 45.2322C3.0759 48.9597 4.76215 53.2492 6.77381 55.3496L15.6488 64.2246C17.2463 65.8221 18.9621 66.4138 20.5892 66.4138C22.6896 66.4138 24.6126 65.3784 25.7663 64.2246L33.7538 56.2076H44.3742C49.4034 56.2076 51.9476 53.0717 52.8647 49.9951C56.2076 49.1076 58.0417 46.5634 58.7813 44.0784C63.3667 42.8951 65.0826 38.5463 65.0826 35.4992V26.6242H63.3372L64.2246 25.7663ZM59.1659 35.4992C59.1659 36.8305 58.6038 38.4576 56.2076 38.4576H53.2492V41.4159C53.2492 42.7472 52.6872 44.3742 50.2909 44.3742H47.3326V47.3326C47.3326 48.6638 46.7705 50.2909 44.3742 50.2909H31.328L21.6246 59.9942C20.7076 60.8522 20.1751 60.3492 19.8496 60.0238L11.0042 51.208C10.1463 50.2909 10.6492 49.7584 10.9746 49.433L14.7909 45.5872V33.7538L20.7076 27.8371V32.5409C20.7076 36.1205 23.0742 41.4159 29.5826 41.4159C36.0909 41.4159 38.4576 36.1205 38.4576 32.5409H59.1659V35.4992ZM60.0238 21.5655L54.9947 26.6242H32.5409V32.5409C32.5409 33.8722 31.9788 35.4992 29.5826 35.4992C27.1863 35.4992 26.6242 33.8722 26.6242 32.5409V23.6659C26.6242 22.3051 27.1271 17.7492 32.5409 17.7492H42.6288L49.3738 11.0042C50.2909 10.1463 50.8234 10.6492 51.1488 10.9746L59.9942 19.7905C60.8522 20.7076 60.3492 21.2401 60.0238 21.5655Z" fill="#0C2339"/>
</svg> 