<svg xmlns="http://www.w3.org/2000/svg" width="66" height="77" viewBox="0 0 66 77" fill="none">
<g clip-path="url(#clip0_465_2995)">
<path d="M16.8015 33.55L13.2873 26.29C11.8597 26.4 10.4321 26.4 9.22411 25.96C2.41546 23.54 -1.64777 14.74 0.658387 7.92C0.658387 7.92 1.64674 7.37 2.30564 7.15C5.9296 14.74 4.94125 13.75 8.45539 14.96C11.091 15.95 16.9113 13.2 17.8997 10.45C19.1076 7.15 19.2175 8.14 15.7033 0.77C16.2524 0.55 17.2408 0 17.3506 0C24.1592 2.31 28.3323 11.22 25.9163 18.04C25.477 19.25 24.5985 20.46 23.3905 21.56L28.2225 31.79H28.1126L28.4421 32.34H20.3156H19.5469C18.4487 32.45 17.4604 32.89 16.8015 33.55ZM41.6201 62.48L46.3423 69.52L46.1226 72.38L36.5685 77L34.2624 75.35L31.7366 67.21L29.4304 62.26H33.0544H41.6201V62.48ZM41.5103 66.77C40.7416 65.23 38.8747 64.57 37.2274 65.23C35.69 66 35.0311 67.87 35.69 69.52C36.4587 71.06 38.3256 71.72 39.9729 71.06C41.5103 70.29 42.1692 68.42 41.5103 66.77ZM65.9995 32.56V59.07L54.908 60.06V56.32L51.6135 57.42L43.9263 60.61H43.8165H34.2624H26.685C24.4887 60.61 22.7316 58.96 22.7316 56.87C22.7316 55.88 23.1709 55 23.8298 54.23H23.72C21.5236 54.23 19.7665 52.58 19.7665 50.49C19.7665 49.61 20.096 48.73 20.7549 48.07C19.1076 47.63 17.7898 46.2 17.7898 44.44C17.7898 43.01 18.5586 41.91 19.7665 41.25C18.4487 40.7 17.4604 39.38 17.4604 37.84C17.4604 35.75 19.2175 34.1 21.4138 34.1H22.1825H37.1176C35.4704 32.45 31.7366 30.91 29.5403 29.26L26.9046 23.65C27.4537 20.79 29.5403 16.5 34.1526 17.71C34.2624 17.71 34.3722 17.71 34.3722 17.71C36.0195 26.84 51.5037 27.17 54.0294 35.86H54.7982V33.33L65.9995 32.56ZM62.4853 54.45C62.4853 53.13 61.497 52.14 60.1792 52.14C58.8614 52.14 57.873 53.13 57.873 54.45C57.873 55.77 58.8614 56.76 60.1792 56.76C61.497 56.76 62.4853 55.77 62.4853 54.45Z" fill="#0C2339"/>
</g>
<defs>
<clipPath id="clip0_465_2995">
<rect width="66" height="77" fill="white"/>
</clipPath>
</defs>
</svg>