<svg xmlns="http://www.w3.org/2000/svg" width="78" height="78" viewBox="0 0 78 78" fill="none">
<g clip-path="url(#clip0_774_47570)">
<path fill-rule="evenodd" clip-rule="evenodd" d="M14.4223 62.0298L0.294023 76.2317C-0.147487 76.6732 -0.147487 77.3355 0.294023 77.7034C0.735532 78.1449 1.3978 78.1449 1.76572 77.7034L15.894 63.5751C16.7035 64.3845 18.028 64.3845 18.8374 63.5751L26.2695 56.143L21.7808 51.6543L14.4223 59.0864C13.6129 59.8959 13.6129 61.2204 14.4223 62.0298ZM77.7053 12.2128L65.7846 0.29207C65.3431 -0.14944 64.6808 -0.14944 64.3129 0.29207C63.8714 0.733579 63.8714 1.39584 64.3129 1.76377L68.0657 5.5166L57.6167 15.9657L50.9204 9.26943C50.4789 8.82792 49.8167 8.82792 49.4487 9.26943C49.0072 9.71094 49.0072 10.3732 49.4487 10.7411L53.2016 14.494L20.3827 47.1657C19.5733 47.9751 19.5733 49.2996 20.3827 50.1091L21.8544 51.5808L27.8148 57.5411C28.6242 58.3506 29.9487 58.3506 30.7582 57.5411L63.5035 24.7958L67.2563 28.5487C67.6978 28.9902 68.3601 28.9902 68.728 28.5487C69.1695 28.1072 69.1695 27.4449 68.728 27.077L62.0318 20.3807L72.4808 9.93169L76.2336 13.6845C76.6752 14.126 77.3374 14.126 77.7053 13.6845C78.0733 13.3166 78.0733 12.6543 77.7053 12.2128ZM54.5997 30.8298L50.8469 27.077C50.4053 26.6355 49.7431 26.6355 49.3752 27.077C48.9336 27.5185 48.9336 28.1807 49.3752 28.5487L53.128 32.3015L45.6959 39.7336L41.9431 36.0543C41.5016 35.6128 40.8393 35.6128 40.4714 36.0543C40.0299 36.4958 40.0299 37.1581 40.4714 37.526L44.2242 41.2789L36.7921 48.6374L33.0393 44.8845C32.5978 44.443 31.9355 44.443 31.5676 44.8845C31.1261 45.326 31.1261 45.9883 31.5676 46.3562L35.3204 50.1091L29.3601 56.0694L21.8544 48.6374L54.5997 15.8921L62.0318 23.3241L54.5997 30.8298Z" fill="white"/>
</g>
<defs>
<clipPath id="clip0_774_47570">
<rect width="78" height="78" fill="white"/>
</clipPath>
</defs>
</svg>