<svg xmlns="http://www.w3.org/2000/svg" width="68" height="46" viewBox="0 0 68 46" fill="none">
<path d="M56.6667 0C58.1696 0 59.6109 0.597022 60.6736 1.65973C61.7363 2.72243 62.3333 4.16377 62.3333 5.66667V34C62.3333 37.145 59.8117 39.6667 56.6667 39.6667H68V45.3333H0V39.6667H11.3333C9.83044 39.6667 8.3891 39.0696 7.32639 38.0069C6.26369 36.9442 5.66667 35.5029 5.66667 34V5.66667C5.66667 2.52167 8.18833 0 11.3333 0H56.6667ZM56.6667 5.66667H11.3333V34H56.6667V5.66667ZM34 22.6667C40.2617 22.6667 45.3333 25.2167 45.3333 28.3333V31.1667H22.6667V28.3333C22.6667 25.2167 27.7383 22.6667 34 22.6667ZM34 8.5C35.5029 8.5 36.9442 9.09702 38.0069 10.1597C39.0696 11.2224 39.6667 12.6638 39.6667 14.1667C39.6667 15.6696 39.0696 17.1109 38.0069 18.1736C36.9442 19.2363 35.5029 19.8333 34 19.8333C30.855 19.8333 28.3333 17.3117 28.3333 14.1667C28.3333 11.0217 30.8833 8.5 34 8.5Z" fill="white"/>
</svg>