<svg width="19" height="19" viewBox="0 0 19 19" fill="none" xmlns="http://www.w3.org/2000/svg">
<g id="humbleicons:mail">
<g id="Group">
<path id="Vector" d="M15.8333 4.75H3.16667C2.9567 4.75 2.75534 4.83341 2.60687 4.98187C2.45841 5.13034 2.375 5.3317 2.375 5.54167V13.4583C2.375 13.6683 2.45841 13.8697 2.60687 14.0181C2.75534 14.1666 2.9567 14.25 3.16667 14.25H15.8333C16.0433 14.25 16.2447 14.1666 16.3931 14.0181C16.5416 13.8697 16.625 13.6683 16.625 13.4583V5.54167C16.625 5.3317 16.5416 5.13034 16.3931 4.98187C16.2447 4.83341 16.0433 4.75 15.8333 4.75Z" stroke="white" stroke-width="1.58333" stroke-linejoin="round"/>
<path id="Vector_2" d="M2.375 6.33301L8.62125 10.4972C8.88144 10.6708 9.18722 10.7634 9.5 10.7634C9.81278 10.7634 10.1186 10.6708 10.3787 10.4972L16.625 6.33301" stroke="white" stroke-width="1.58333" stroke-linecap="round"/>
</g>
</g>
</svg>
