<svg xmlns="http://www.w3.org/2000/svg" width="81" height="46" viewBox="0 0 81 46" fill="none">
<g clip-path="url(#clip0_840_52934)">
<path d="M65.7254 34.7015C63.874 34.932 62.7169 36.6614 62.9483 38.3907C63.1797 40.2353 64.9154 41.3882 66.6511 41.1576C68.5026 40.927 69.6597 39.1977 69.4283 37.4684C69.1969 35.6238 67.5769 34.3556 65.7254 34.7015Z" fill="#0C2339"/>
<path d="M28.5819 34.7015C26.7304 34.932 25.5733 36.6614 25.8047 38.3907C26.0362 40.2353 27.7719 41.3882 29.5076 41.1576C31.359 40.927 32.5162 39.1977 32.2847 37.4684C32.169 35.6238 30.4333 34.3556 28.5819 34.7015Z" fill="#0C2339"/>
<path d="M10.6454 34.7015C8.79392 34.932 7.63678 36.6614 7.86821 38.3907C8.09964 40.2353 9.83535 41.5035 11.5711 41.1576C13.4225 40.927 14.5796 39.1977 14.3482 37.4684C14.1168 35.6238 12.4968 34.3556 10.6454 34.7015Z" fill="#0C2339"/>
<path d="M80.3057 31.4736H80.19V29.9748C80.5371 29.9748 80.7686 29.7443 80.7686 29.3984V27.4385C80.7686 27.0926 80.5371 26.8621 80.19 26.8621V25.7092C80.19 20.5212 78.1071 13.7192 75.0986 9.68412C74.6357 9.10768 73.9414 8.76181 73.2471 8.76181H59.13C58.32 8.76181 57.7414 9.33825 57.7414 10.1453V17.2931H51.9557L51.84 17.7543L50.6829 17.4084L48.6 25.8245L49.7571 26.1703L48.9471 29.9748H38.4171L45.8229 29.2831C46.4014 29.2831 46.98 28.7067 47.0957 28.2455L51.6086 11.2982C51.7243 10.7217 51.4929 10.03 51.03 9.79941L43.3929 4.38086L36.45 30.0901H14.8114V25.7092L5.20714 19.9448V17.0626L2.31429 14.9874V29.9748H0V35.9698H3.81857C3.70286 36.3157 3.70286 36.5463 3.58714 36.8921L3.00857 37.0074V38.2756L3.58714 38.3909C3.58714 38.6215 3.58714 38.7367 3.58714 38.9673C3.58714 39.0826 3.58714 39.3132 3.70286 39.4285L3.12429 39.7743L3.58714 41.0425L4.16571 40.9272C4.28143 41.2731 4.51286 41.619 4.62857 41.8495L4.28143 42.3107L5.09143 43.3483L5.67 43.1177C5.90143 43.3483 6.24857 43.5789 6.48 43.8094L6.24857 44.3859L7.40571 45.0776L7.86857 44.6165C8.21571 44.7317 8.56286 44.9623 8.91 44.9623V45.5388L10.1829 45.7693L10.4143 45.4235C10.7614 45.4235 11.1086 45.4235 11.4557 45.4235L11.6871 45.9999L12.96 45.7693V45.1929C13.3071 45.0776 13.6543 44.9623 14.0014 44.847L14.3486 45.3082L15.5057 44.7317L15.39 44.1553C15.7371 43.9247 15.9686 43.6941 16.2 43.4636L16.7786 43.8094L17.5886 42.8871L17.2414 42.426C17.4729 42.1954 17.5886 41.8495 17.82 41.5037H18.5143L18.9771 40.3508L18.3986 40.0049C18.5143 39.6591 18.5143 39.3132 18.63 38.9673L19.3243 38.852V37.5839L18.63 37.4686C18.63 37.3533 18.63 37.1227 18.63 37.0074C18.63 36.7768 18.5143 36.6616 18.5143 36.431L18.9771 36.2004H21.87C21.7543 36.5463 21.7543 36.7769 21.6386 37.1227L21.06 37.238V38.5062L21.6386 38.6215C21.6386 38.852 21.6386 38.9673 21.6386 39.1979C21.6386 39.3132 21.6386 39.5438 21.7543 39.6591L21.1757 40.0049L21.6386 41.2731L22.2171 41.1578C22.3329 41.5037 22.5643 41.8495 22.68 42.0801L22.3329 42.5413L23.1429 43.5789L23.7214 43.3483C23.9529 43.5789 24.3 43.8094 24.5314 44.04L24.3 44.5012L25.4571 45.1929L25.92 44.7317C26.2671 44.847 26.6143 45.0776 26.9614 45.0776V45.654L28.2343 45.8846L28.4657 45.3082C28.8129 45.3082 29.16 45.3082 29.5071 45.3082L29.7386 45.8846L31.0114 45.654V45.0776C31.3586 44.9623 31.7057 44.847 32.0529 44.7317L32.4 45.1929L33.5571 44.6165L33.4414 44.04C33.7886 43.8094 34.02 43.5789 34.2514 43.3483L34.83 43.6941L35.64 42.7718L35.2929 42.3107C35.5243 42.0801 35.64 41.7342 35.8714 41.3884L36.45 41.5037L36.9129 40.3508L36.3343 40.0049C36.45 39.6591 36.45 39.3132 36.5657 38.9673L37.26 38.852V37.5839L36.5657 37.4686C36.5657 37.3533 36.5657 37.1227 36.5657 37.0074C36.5657 36.7768 36.45 36.6616 36.45 36.431L36.9129 36.2004H58.8986C58.7829 36.5463 58.7829 36.7769 58.6671 37.1227L58.0886 37.238V38.5062L58.6671 38.6215C58.6671 38.852 58.6671 38.9673 58.6671 39.1979C58.6671 39.3132 58.6671 39.5438 58.7829 39.6591L58.2043 40.0049L58.6671 41.2731L59.2457 41.1578C59.3614 41.5037 59.5929 41.8495 59.7086 42.0801L59.3614 42.5413L60.1714 43.5789L60.75 43.3483C60.9814 43.5789 61.3286 43.8094 61.56 44.04L61.3286 44.6165L62.4857 45.3082L62.9486 44.847C63.2957 44.9623 63.6429 45.1929 63.99 45.1929V45.7693L65.2629 45.9999L65.4943 45.4235C65.8414 45.4235 66.1886 45.4235 66.5357 45.4235L66.7671 45.9999L68.04 45.7693V45.1929C68.3871 45.0776 68.7343 44.9623 69.0814 44.847L69.4286 45.3082L70.5857 44.7317L70.47 44.1553C70.8171 43.9247 71.0486 43.6941 71.28 43.4636L71.8586 43.8094L72.6686 42.8871L72.3214 42.426C72.5529 42.1954 72.6686 41.8495 72.9 41.5037L73.4786 41.619L73.9414 40.4661L73.3629 40.1202C73.4786 39.7743 73.4786 39.4285 73.5943 39.0826L74.2886 38.9673V37.6992L73.5943 37.5839C73.5943 37.4686 73.5943 37.238 73.5943 37.1227C73.5943 36.8921 73.4786 36.7769 73.4786 36.5463L73.9414 36.3157H78.4543C79.8429 36.3157 80.8843 35.1628 80.8843 33.8946V32.3959C81 31.7042 80.6529 31.4736 80.3057 31.4736ZM11.6871 42.0801C9.37286 42.426 7.17429 40.8119 6.82714 38.5062C6.48 36.2004 8.1 34.0099 10.4143 33.6641C12.7286 33.3182 14.9271 34.9322 15.2743 37.238C15.6214 39.5438 14.1171 41.7342 11.6871 42.0801ZM29.7386 42.0801C27.4243 42.426 25.2257 40.8119 24.8786 38.5062C24.5314 36.2004 26.1514 34.0099 28.4657 33.6641C30.78 33.3182 32.9786 34.9322 33.3257 37.238C33.6729 39.5438 32.0529 41.7342 29.7386 42.0801ZM66.7671 42.0801C64.4529 42.426 62.2543 40.8119 61.9071 38.5062C61.56 36.2004 63.18 34.0099 65.4943 33.6641C67.8086 33.3182 70.0071 34.9322 70.3543 37.238C70.7014 39.6591 69.0814 41.7342 66.7671 42.0801ZM78.8014 25.1327H63.99L60.2871 17.7543V11.0676C60.2871 10.9523 60.2871 10.9523 60.2871 10.837C60.4029 10.3758 60.75 10.1453 61.2129 10.1453H72.5529C73.2471 10.1453 73.9414 10.4911 74.4043 11.0676C76.8343 14.5262 78.6857 20.2906 78.6857 24.7869C78.8014 24.9022 78.8014 25.0175 78.8014 25.1327Z" fill="#0C2339"/>
<path d="M34.3671 29.9749L41.5413 3.45859L25.8042 0.115234L19.0928 24.9022L34.3671 29.9749Z" fill="#0C2339"/>
<path d="M1.2731 13.2581L17.2417 24.0952L23.7217 0L4.39738 1.38346C3.81881 1.38346 3.24024 1.84461 3.12453 2.42105L0.694527 11.6441C0.578813 12.2206 0.810241 12.9123 1.2731 13.2581Z" fill="#0C2339"/>
</g>
<defs>
<clipPath id="clip0_840_52934">
<rect width="81" height="46" fill="white"/>
</clipPath>
</defs>
</svg>