<svg xmlns="http://www.w3.org/2000/svg" width="64" height="64" viewBox="0 0 64 64" fill="none">
<path d="M14.2307 2.21507C13.1774 2.22007 12.1292 2.31919 11.0939 2.51957C24.4564 10.5629 34.4343 21.3146 42.3089 33.7501C42.6247 27.0301 39.9252 20.1088 35.6173 14.4688C33.8552 15.1311 31.6827 14.5616 30.1838 13.0626C28.6863 11.5651 28.114 9.39419 28.7735 7.63282C24.3077 4.26319 19.2102 2.19007 14.2307 2.21507ZM61.8009 4.76569L52.9339 14.4688L56.6914 30.1642L49.8049 31.2617L47.379 41.3399L56.5665 46.2304L51.4103 53.2226L55.1175 58.7267L44.0198 55.2736L46.0823 49.7931L36.4964 45.5626L38.1369 34.9922L24.215 42.2578L23.6875 52.0391L9.66003 48.5821L5.50378 61.6016H61.8008V4.76569H61.8009ZM32.6447 7.34007C32.5962 7.34132 32.5477 7.34357 32.5002 7.34757C32.0447 7.38819 31.6399 7.55957 31.3517 7.84757C30.5833 8.61632 30.6334 10.2076 31.836 11.4101C33.0388 12.6129 34.6302 12.6631 35.3985 11.8946C36.167 11.1261 36.1169 9.53482 34.9142 8.33207C34.2095 7.62744 33.3723 7.32019 32.6447 7.34007ZM24.5627 15.9492L3.16016 37.3593C3.69428 38.8501 4.53853 39.9906 6.31641 40.5626L27.7464 19.1251C26.7719 18.0138 25.7079 16.9583 24.5627 15.9492ZM44.4102 17.4023L45.5744 27.9881L49.004 17.4022H44.4103L44.4102 17.4023ZM27.9064 26.7733L25.3869 31.2654L36.9728 32.1873L27.9065 26.7732L27.9064 26.7733Z" fill="#0C2339"/>
</svg>