<svg xmlns="http://www.w3.org/2000/svg" width="63" height="63" viewBox="0 0 63 63" fill="none">
<path d="M18.7548 7.00438C15.3049 7.00438 12.1748 7.35986 9.97742 7.90676C8.88973 8.18022 8.02177 8.50945 7.51638 8.80915C7.1648 9.01369 7.06592 9.1537 7.02197 9.20074C7.06592 9.24777 7.1648 9.38778 7.51638 9.59232C8.02177 9.89202 8.88973 10.2213 9.97742 10.4947C12.1748 11.0416 15.3049 11.3971 18.7548 11.3971H19.381C19.9633 11.1783 20.6006 10.9836 21.3147 10.8064C23.545 10.2508 26.4236 9.88546 29.6427 9.78264C29.7745 9.72029 29.8954 9.65795 29.9943 9.59669C30.3349 9.39215 30.4447 9.25214 30.4887 9.20511C30.4447 9.15808 30.3349 9.01807 29.9943 8.81353C29.4889 8.51383 28.6209 8.18459 27.5222 7.91114C25.3359 7.36424 22.2046 7.00875 18.7548 7.00875V7.00438ZM44.2441 7.00438C40.7943 7.00438 37.663 7.35986 35.4767 7.90676C34.378 8.18022 33.51 8.50945 33.0046 8.80915C32.6641 9.01369 32.5542 9.1537 32.5102 9.20074C32.5542 9.24777 32.6641 9.38778 33.0046 9.59232C33.1035 9.65357 33.2244 9.71592 33.3562 9.77826C36.5753 9.88108 39.4539 10.2464 41.6842 10.8021C42.3983 10.9793 43.0356 11.174 43.6179 11.3927H44.2441C47.694 11.3927 50.8252 11.0372 53.0116 10.4903C54.1103 10.2169 54.9782 9.88764 55.4836 9.58794C55.8242 9.3834 55.9341 9.24339 55.978 9.19636C55.9341 9.14933 55.8242 9.00932 55.4836 8.80478C54.9782 8.50508 54.1103 8.17584 53.0116 7.90239C50.8252 7.35549 47.694 7 44.2441 7V7.00438ZM7 11.5459V44.1915C7 44.6619 7.19776 45.0666 7.7471 45.5369C8.29644 46.0073 9.18637 46.4667 10.307 46.8386C11.988 47.3964 14.1524 47.7683 16.4475 47.9105V34.1723L14.6347 37.3006L13.7789 36.8084C10.7685 35.0692 8.9117 31.8534 8.90072 28.3861V27.4016H14.6787C14.6127 27.686 14.5798 27.9814 14.5798 28.2876C14.5798 29.7205 15.3269 31.0003 16.4475 31.755V24.8203C16.2388 24.9625 16.052 25.1156 15.8762 25.2797L13.0208 20.3466L13.8777 19.8544C14.7006 19.395 15.5576 19.0559 16.4475 18.8372V13.3145C13.7898 13.1964 11.3947 12.8759 9.50499 12.4045C8.52716 12.1628 7.69217 11.8838 7 11.5459ZM56 11.5459C55.3078 11.8838 54.4618 12.1617 53.495 12.4034C51.6053 12.8748 49.2102 13.1953 46.5514 13.3134V18.8481C47.4413 19.0669 48.3092 19.4059 49.1223 19.8653L49.9683 20.3575L49.4848 21.2107L47.1227 25.2797C46.9469 25.1156 46.7601 24.9625 46.5514 24.8203V31.755C47.672 31.0003 48.4191 29.7205 48.4191 28.2876C48.4191 27.9814 48.3862 27.686 48.3202 27.4016H53.9015V28.3861C53.9015 31.8644 52.0338 35.0692 49.0234 36.8084L48.1664 37.3006L46.5514 34.5114V47.9105C48.8476 47.7683 51.023 47.3964 52.693 46.8386C53.8136 46.4667 54.7036 46.0073 55.2529 45.5369C55.8022 45.0666 56 44.6619 56 44.1915V11.5459ZM31.4995 11.7165C27.687 11.7165 24.2262 12.107 21.7981 12.7118C20.5786 13.0148 19.6227 13.378 19.0404 13.7171C18.568 13.9993 18.4581 14.2005 18.4362 14.2322C18.4581 14.264 18.568 14.4641 19.0404 14.7463C19.6227 15.0854 20.5786 15.4464 21.7981 15.7526C24.2262 16.3542 27.687 16.748 31.4995 16.748C35.3119 16.748 38.7727 16.3542 41.2008 15.7526C42.4203 15.4464 43.3762 15.0854 43.9585 14.7463C44.4309 14.4641 44.5408 14.264 44.5627 14.2322C44.5408 14.2005 44.4309 13.9993 43.9585 13.7171C43.3762 13.378 42.4203 13.0148 41.2008 12.7118C38.7727 12.107 35.3119 11.7165 31.4995 11.7165ZM44.5627 14.2322C44.5737 14.2432 44.5737 14.2432 44.5737 14.2322C44.5737 14.2213 44.5737 14.2213 44.5627 14.2322ZM18.4362 14.2322C18.4252 14.2213 18.4252 14.2213 18.4252 14.2322C18.4252 14.2432 18.4252 14.2432 18.4362 14.2322ZM18.4252 16.6495V52.7342C18.4252 53.2811 18.6669 53.7514 19.2931 54.2874C19.9084 54.8124 20.9082 55.3265 22.1387 55.7421C24.6217 56.5625 28.0716 57 31.4995 57C34.9273 57 38.3772 56.5625 40.8602 55.7421C42.0907 55.3265 43.0905 54.8124 43.7058 54.2874C44.332 53.7514 44.5737 53.2811 44.5737 52.7342V16.6495C43.7827 17.0543 42.8158 17.3715 41.6842 17.6668C39.0254 18.3231 35.4547 18.7168 31.4995 18.7168C27.5442 18.7168 23.9735 18.3231 21.3147 17.6668C20.1831 17.3715 19.2162 17.0543 18.4252 16.6495ZM31.4995 24.6234C33.3452 24.6234 35.18 25.1047 36.828 26.0453L37.685 26.5375L37.1906 27.3907L34.5428 31.9409C33.7408 31.2081 32.675 30.7487 31.4995 30.7487C30.3239 30.7487 29.2581 31.2081 28.4561 31.9409L25.3139 26.5375L26.1709 26.0453C27.8189 25.0937 29.6537 24.6234 31.4995 24.6234ZM31.4995 32.7175C32.9058 32.7175 34.0264 33.8332 34.0264 35.2333C34.0264 36.6334 32.9058 37.749 31.4995 37.749C30.0931 37.749 28.9725 36.6334 28.9725 35.2333C28.9725 33.8332 30.0931 32.7175 31.4995 32.7175ZM20.7324 34.3582H27.0828C27.0278 34.6426 26.9949 34.938 26.9949 35.2333C26.9949 37.2131 28.3133 38.9194 30.1261 39.4991L26.918 45.0228L26.061 44.5306C22.765 42.6383 20.7324 39.1272 20.7324 35.3427V34.3582ZM35.9161 34.3582H42.0468V35.3427C42.0468 39.1272 40.0142 42.6383 36.7182 44.5306L35.8612 45.0228L32.697 39.5538C34.5977 39.0288 36.004 37.2787 36.004 35.2333C36.004 34.938 35.9711 34.6426 35.9161 34.3582Z" fill="#0C2339"/>
</svg>