<svg xmlns="http://www.w3.org/2000/svg" width="52" height="78" viewBox="0 0 52 78" fill="none">
<path fill-rule="evenodd" clip-rule="evenodd" d="M34.5134 4.32333H30.19C30.19 1.90519 28.2849 0 25.8667 0C23.4486 0 21.5434 1.90519 21.5434 4.32333H17.2201V10.7717H34.5134V4.32333ZM25.8667 6.52163C24.6943 6.52163 23.7417 5.56904 23.7417 4.39661C23.7417 3.22418 24.6943 2.27157 25.8667 2.27157C27.0392 2.27157 27.9917 3.22418 27.9917 4.39661C28.065 5.49576 27.0392 6.52163 25.8667 6.52163ZM43.16 36.7117H8.64668V38.8367H43.16V36.7117ZM43.16 32.3884H8.64668V34.5134H43.16V32.3884ZM8.64668 43.16H25.94V41.035H8.64668V43.16ZM47.4834 4.32333H36.7117V8.64667H47.4834V73.3501H4.32333V8.64667H15.095V4.32333H4.32333C1.90519 4.32333 0 6.22853 0 8.64667V73.3501C0 75.7682 1.90519 77.6734 4.32333 77.6734H47.4834C49.9015 77.6734 51.8067 75.7682 51.8067 73.3501V8.64667C51.8067 6.30181 49.8283 4.32333 47.4834 4.32333ZM12.97 15.095V19.4184H8.64668V23.7417H12.97V28.065H17.2933V23.7417H21.6167V19.4184H17.2933V15.095H12.97Z" fill="#0C2339"/>
</svg>