<svg xmlns="http://www.w3.org/2000/svg" width="54" height="80" viewBox="0 0 54 80" fill="none">
<g clip-path="url(#clip0_774_47575)">
<path fill-rule="evenodd" clip-rule="evenodd" d="M35.5472 4.45283H31.0943C31.0943 1.96226 29.1321 0 26.6415 0C24.1509 0 22.1887 1.96226 22.1887 4.45283H17.7358V11.0943H35.5472V4.45283ZM26.6415 6.64151C25.434 6.64151 24.4528 5.66038 24.4528 4.45283C24.4528 3.24528 25.434 2.26415 26.6415 2.26415C27.8491 2.26415 28.8302 3.24528 28.8302 4.45283C28.9057 5.66038 27.9245 6.64151 26.6415 6.64151ZM44.4528 37.8113H8.90566V40H44.4528V37.8113ZM44.4528 33.3585H8.90566V35.5472H44.4528V33.3585ZM8.90566 44.4528H26.717V42.2642H8.90566V44.4528ZM48.9057 4.45283H37.8113V8.90566H48.9057V75.5472H4.45283V8.90566H15.5472V4.45283H4.45283C1.96226 4.45283 0 6.41509 0 8.90566V75.5472C0 78.0377 1.96226 80 4.45283 80H48.9057C51.3962 80 53.3585 78.0377 53.3585 75.5472V8.90566C53.3585 6.41509 51.3208 4.45283 48.9057 4.45283ZM13.3585 15.5472V20H8.90566V24.4528H13.3585V28.9057H17.8113V24.4528H22.2642V20H17.8113V15.5472H13.3585Z" fill="white"/>
</g>
<defs>
<clipPath id="clip0_774_47575">
<rect width="53.3585" height="80" fill="white"/>
</clipPath>
</defs>
</svg> 