<svg xmlns="http://www.w3.org/2000/svg" width="65" height="65" viewBox="0 0 65 65" fill="none">
<path d="M10.833 8.12452H27.083V13.5412H10.833V8.12452ZM2.70801 18.9578H16.2497V24.3745H2.70801V18.9578ZM8.12467 51.4579H21.6663V56.8745H8.12467V51.4579ZM37.1851 28.7349C39.2705 29.3578 40.7059 30.8474 41.4372 32.6891L53.0018 13.4328C54.7622 10.5078 53.8143 6.77035 50.8893 4.95577C48.533 3.54743 45.4997 3.84535 43.4955 5.74118L34.2059 14.4349C33.1226 15.437 32.4997 16.8724 32.4997 18.362V29.0058C33.4747 28.5995 35.208 28.112 37.1851 28.7349ZM28.7351 33.2308C29.1684 31.8224 30.0351 30.6308 31.1455 29.7912H8.88301C5.41634 29.7912 2.70801 32.4995 2.70801 35.9662C2.70801 38.7287 4.52259 41.1391 7.17676 41.8974L19.3913 45.3912C20.8268 45.7974 22.3705 45.6078 23.6705 44.8224L30.9559 40.462C29.9043 39.6176 29.1305 38.4769 28.7345 37.1876C28.3386 35.8983 28.3388 34.5199 28.7351 33.2308ZM60.1518 50.4016L53.9768 39.2703C53.229 37.9855 52.0015 37.0503 50.5643 36.6703L41.9788 34.5037C41.9788 35.3703 41.9788 36.2912 41.6809 37.1849C41.266 38.5768 40.4107 39.7965 39.2436 40.6608C38.0764 41.5252 36.6604 41.9876 35.208 41.9787C33.5559 41.9787 32.4997 41.3828 32.4997 41.3828V56.8745C29.5205 56.8745 27.083 59.312 27.083 62.2912H43.333C43.333 59.312 40.8955 56.8745 37.9163 56.8745V45.2828L50.4018 57.7683C52.8122 60.1787 56.7122 60.1787 59.1226 57.7683C61.0726 55.8183 61.5059 52.812 60.1518 50.4016ZM34.0163 39.0808C36.1559 39.7308 38.4309 38.5391 39.0809 36.3724C39.7309 34.2328 38.5393 31.9578 36.3726 31.3078C34.233 30.6578 31.958 31.8495 31.308 34.0162C30.658 36.1558 31.8768 38.4308 34.0163 39.0808Z" fill="#0C2339"/>
</svg>