<svg xmlns="http://www.w3.org/2000/svg" width="60" height="60" viewBox="0 0 60 60" fill="none">
<path d="M59.7889 49.3871C59.7889 49.6871 59.7889 49.9871 59.6889 50.2871L52.1889 42.7871L45.0889 44.6871L43.1889 51.7871L50.5889 59.1871C50.4889 59.1871 50.2889 59.2871 50.0889 59.2871C44.3889 60.5871 38.1889 57.0871 36.1889 51.3871C35.5889 49.4871 35.2889 47.6871 35.5889 45.6871C35.9889 42.7871 34.8889 40.5871 32.7889 38.4871C29.0889 34.6871 25.1889 31.0871 21.5889 27.1871C19.4889 24.8871 16.9889 24.0871 13.8889 24.2871C7.88889 24.7871 3.08889 21.6871 1.08889 16.3871C0.288889 14.1871 0.0888889 11.8871 0.588889 9.58713C0.588889 9.48713 0.688889 9.38713 0.688889 9.28713L7.78889 16.3871L14.8889 14.4871L16.7889 7.38713L9.78889 0.387128C9.88889 0.387128 10.0889 0.287128 10.1889 0.287128C16.8889 -1.31287 24.1889 3.98713 24.7889 10.8871C24.8889 11.8871 24.8889 12.9871 24.7889 13.9871C24.4889 16.6871 25.3889 18.9871 27.2889 20.8871C31.0889 24.5871 34.6889 28.2871 38.3889 31.9871C41.4889 35.0871 42.2889 35.3871 46.5889 35.1871C54.7889 34.4871 61.0889 41.4871 59.7889 49.3871ZM26.6889 39.0871C21.3889 44.3871 16.0889 49.6871 10.7889 54.9871C10.4889 55.2871 10.1889 55.6871 9.78889 55.9871C9.18889 56.5871 8.48889 57.1871 7.68889 56.2871C6.88889 55.4871 7.28889 54.7871 7.88889 54.0871C8.38889 53.5871 8.98889 52.9871 9.48889 52.4871C14.7889 47.1871 20.0889 41.8871 25.3889 36.5871C26.1889 35.7871 26.2889 35.2871 25.4889 34.3871C24.6889 33.3871 24.0889 33.7871 23.3889 34.3871C22.8889 34.7871 22.4889 35.1871 22.0889 35.6871C16.7889 41.0871 11.3889 46.5871 6.08889 51.9871C5.48889 52.5871 4.68889 53.1871 3.88889 52.4871C2.98889 51.6871 3.48889 50.8871 4.18889 50.0871C9.98889 44.2871 15.7889 38.3871 21.6889 32.6871C22.2889 32.0871 23.2889 31.6871 22.2889 30.5871C21.3889 29.6871 20.7889 30.0871 19.9889 30.7871C17.2889 33.4871 14.5889 36.1871 11.8889 38.9871C8.58889 42.2871 5.28889 45.4871 2.08889 48.7871C0.0888889 50.8871 -0.611111 53.3871 0.588889 56.0871C1.68889 58.5871 3.68889 59.8871 6.48889 59.9871C8.48889 60.0871 10.0889 59.1871 11.4889 57.7871C17.1889 52.0871 22.8889 46.4871 28.4889 40.7871C29.0889 40.1871 30.2889 39.6871 28.9889 38.4871C27.6889 37.1871 27.2889 38.5871 26.6889 39.0871ZM51.1889 11.6871L55.2889 10.0871L59.6889 3.18713L57.1889 0.687128L50.2889 5.08713L48.6889 9.18713L33.2889 24.5871L35.7889 27.0871L51.1889 11.6871Z" fill="#0C2339"/>
</svg> 