<svg xmlns="http://www.w3.org/2000/svg" width="53" height="65" viewBox="0 0 53 65" fill="none">
<g clip-path="url(#clip0_465_2998)">
<path d="M11.4996 17.6C11.4996 16.4 12.3996 16 13.3996 16H39.7996C40.8996 16 41.6996 16.4 41.6996 17.6C41.6996 23.1 11.4996 23.1 11.4996 17.6ZM13.3996 15.1C12.9996 15.1 12.5996 15.1 12.2996 15.2C12.4996 7.5 18.8996 0 26.5996 0C34.2996 0 40.5996 7.5 40.8996 15.2C40.4996 15.1 40.1996 15.1 39.7996 15.1H13.3996ZM22.3996 1.7L25.4996 11.1H27.5996L30.6996 1.7C28.0996 1 25.0996 1 22.3996 1.7ZM52.0996 64L51.9996 65H0.799585L0.599585 64C0.399585 62.6 -1.00041 54.4 1.29958 50.7C3.19958 47.7 8.99959 44.4 18.6996 40.8L19.2996 34.6C15.7996 31.8 13.3996 26.7 12.5996 21.3C13.2996 21.5 14.1996 22.1 15.1996 22.3C15.9996 27 18.1996 31 21.2996 33.1C21.6996 33.4 21.8996 33.8 21.7996 34.2L21.0996 41.1C21.2996 41.2 21.3996 41.3 21.5996 41.4C21.6996 41.5 21.8996 41.5 21.9996 41.6C22.3996 41.8 22.6996 41.9 23.0996 42C23.1996 42 23.2996 42.1 23.3996 42.1C25.3996 42.7 27.4996 42.7 29.3996 42.1C29.4996 42.1 29.4996 42 29.5996 42C29.9996 41.9 30.3996 41.7 30.6996 41.6C30.7996 41.5 30.9996 41.5 31.0996 41.4C31.2996 41.3 31.3996 41.2 31.5996 41.1L30.8996 34.2C30.8996 33.8 31.0996 33.3 31.3996 33.1C34.4996 30.9 36.6996 26.9 37.4996 22.3C38.4996 22.2 39.2996 21.5 40.0996 21.3C39.3996 26.7 36.9996 31.9 33.3996 34.6L33.9996 40.8C43.6996 44.4 49.5996 47.7 51.3996 50.7C53.7996 54.4 52.3996 62.6 52.0996 64ZM10.9996 54.8L8.59959 48C5.89959 49.5 4.09959 50.8 3.39959 52C2.09959 54.1 2.19959 57.7 2.99959 62.6H10.9996V54.8ZM40.2996 46C38.1996 45 35.7996 44.1 33.1996 43.1H33.0996C32.5996 43.4 32.0996 43.7 31.5996 43.9C31.5996 43.9 31.5996 43.9 31.4996 43.9C29.8996 44.6 28.0996 45 26.2996 45C24.4996 45 22.7996 44.6 21.0996 43.9C20.5996 43.7 20.0996 43.4 19.5996 43.1H19.4996C16.7996 44.1 14.4996 45.1 12.3996 46L14.8996 52.9H37.7996L40.2996 46ZM49.3996 52C48.6996 50.8 46.8996 49.4 44.1996 48L41.6996 54.8V62.6H49.7996C50.5996 57.7 50.6996 54.1 49.3996 52Z" fill="#0C2339"/>
</g>
<defs>
<clipPath id="clip0_465_2998">
<rect width="52.8" height="65" fill="white"/>
</clipPath>
</defs>
</svg>