<svg xmlns="http://www.w3.org/2000/svg" width="74" height="74" viewBox="0 0 74 74" fill="none">
<path d="M61.6673 24.6674H43.1673C38.049 24.6674 33.9173 28.799 33.9173 33.9174V55.5007C33.9173 60.619 38.049 64.7507 43.1673 64.7507L40.084 67.834V70.9174H43.1673L49.334 64.6582H55.5007L61.6673 70.9174H64.7507V67.834L61.6673 64.7507C66.7857 64.7507 70.9173 60.619 70.9173 55.5007V33.9174C70.9173 28.799 66.7857 24.6674 61.6673 24.6674ZM43.1673 58.584C41.4715 58.584 40.084 57.1965 40.084 55.5007C40.084 53.8049 41.4715 52.4174 43.1673 52.4174C44.8632 52.4174 46.2507 53.8049 46.2507 55.5007C46.2507 57.1965 44.8632 58.584 43.1673 58.584ZM61.6673 58.584C59.9715 58.584 58.584 57.1965 58.584 55.5007C58.584 53.8049 59.9715 52.4174 61.6673 52.4174C63.3632 52.4174 64.7507 53.8049 64.7507 55.5007C64.7507 57.1965 63.3632 58.584 61.6673 58.584ZM64.7507 49.334H40.084V30.834H64.7507V49.334ZM20.5357 44.8015L21.584 52.4174L18.3465 55.6857L12.9198 45.8807L3.08398 40.4232L6.35232 37.0932L14.0607 38.234L25.9932 26.3015L3.08398 14.2457L7.46232 9.8982L35.7982 16.4349L47.7923 4.4407C49.519 2.63695 52.6023 2.63695 54.329 4.4407C56.1482 6.25987 56.1482 9.2507 54.329 10.9774L43.7223 21.584H43.1673C36.3532 21.584 30.834 27.1032 30.834 33.9174V34.5032L20.5357 44.8015Z" fill="#0C2339"/>
</svg>