<svg width="21" height="20" viewBox="0 0 21 20" fill="none" xmlns="http://www.w3.org/2000/svg">
<g clip-path="url(#clip0_991_6792)">
<path d="M12.4379 9.83339L10.1919 8.78539C9.99586 8.69439 9.83486 8.79639 9.83486 9.01339V10.9874C9.83486 11.2044 9.99586 11.3064 10.1919 11.2154L12.4369 10.1674C12.6339 10.0754 12.6339 9.92539 12.4379 9.83339ZM10.8349 0.400391C5.53286 0.400391 1.23486 4.69839 1.23486 10.0004C1.23486 15.3024 5.53286 19.6004 10.8349 19.6004C16.1369 19.6004 20.4349 15.3024 20.4349 10.0004C20.4349 4.69839 16.1369 0.400391 10.8349 0.400391ZM10.8349 13.9004C5.92086 13.9004 5.83486 13.4574 5.83486 10.0004C5.83486 6.54339 5.92086 6.10039 10.8349 6.10039C15.7489 6.10039 15.8349 6.54339 15.8349 10.0004C15.8349 13.4574 15.7489 13.9004 10.8349 13.9004Z" fill="white"/>
</g>
<defs>
<clipPath id="clip0_991_6792">
<rect width="20" height="20" fill="white" transform="translate(0.834961)"/>
</clipPath>
</defs>
</svg>
